<?xml version="1.0" encoding="UTF-8"?>
<svg version="1.1" xmlns="http://www.w3.org/2000/svg" width="959" height="323">
<path d="M0 0 C126.39 0 252.78 0 383 0 C383 11.55 383 23.1 383 35 C256.61 35 130.22 35 0 35 C0 23.45 0 11.9 0 0 Z " fill="#32FF32" transform="translate(149,286)"/>
<path d="M0 0 C17.1022148 17.49994073 19.6875 38.26563126 19.6875 61.75 C-10.3425 61.75 -40.3725 61.75 -71.3125 61.75 C-68.2697753 79.53597105 -68.2697753 79.53597105 -57.25390625 92.5 C-47.26021719 98.93456841 -35.66672567 99.41460287 -24.17578125 97.125 C-15.94091459 94.30017591 -11.55003228 88.02337631 -7.3125 80.75 C-3.70602685 81.53139507 -0.10280299 82.32686816 3.5 83.125 C4.52416016 83.34671875 5.54832031 83.5684375 6.60351562 83.796875 C7.58642578 84.01601562 8.56933594 84.23515625 9.58203125 84.4609375 C10.48800049 84.65993652 11.39396973 84.85893555 12.32739258 85.06396484 C14.6875 85.75 14.6875 85.75 17.6875 87.75 C11.55025114 101.48906846 3.77008181 111.24299207 -10.47265625 117.03515625 C-28.30178368 123.19912968 -49.27755053 123.15578202 -66.5390625 115.27734375 C-79.99165539 108.07424655 -90.00172221 96.34810902 -94.66015625 81.80078125 C-95.72147803 78.15344734 -96.55399379 74.47238016 -97.3125 70.75 C-97.46332031 70.03714844 -97.61414063 69.32429688 -97.76953125 68.58984375 C-98.09303507 66.62725391 -98.22963359 64.73879388 -98.3125 62.75 C-98.3640625 61.615625 -98.415625 60.48125 -98.46875 59.3125 C-99.08734761 38.78583985 -94.45284484 18.45757138 -80.0625 3 C-58.07646877 -17.46467639 -23.69095688 -17.54411401 0 0 Z M-62.3125 18.75 C-67.8983962 25.79069963 -71.3125 32.6910812 -71.3125 41.75 C-50.1925 41.75 -29.0725 41.75 -7.3125 41.75 C-8.45388835 31.47750486 -10.88170155 23.22968528 -18.3125 15.75 C-31.74534249 6.48041863 -50.55512846 6.72541547 -62.3125 18.75 Z " fill="#1ADE92" transform="translate(792.3125,117.25)"/>
<path d="M0 0 C13.71115317 11.15652783 20.79276763 26.67219449 23 44 C24.18917995 66.88065997 21.52575771 87.21994934 6.125 105.1875 C-2.71147258 114.59406759 -15.3758667 121.28573617 -28.39672852 122.16113281 C-48.13711696 122.4950904 -64.65412455 120.66828588 -79.76367188 106.58959961 C-93.13800162 93.23525144 -97.86505369 74.13420722 -98.3125 55.75 C-98.00031153 36.84308605 -92.92446775 18.40152158 -79.75 4.25 C-58.52987853 -15.45777428 -23.2616506 -16.98002343 0 0 Z M-60 20 C-70.23180206 32.52558136 -72.20037483 48.33477315 -71 64 C-69.47345556 75.66678637 -65.48869623 86.85235965 -56.125 94.5 C-47.55665692 100.17939982 -38.66189117 101.15300304 -28.5859375 99.63671875 C-20.63453155 97.57160095 -14.44263135 91.83770121 -10.10546875 85.0234375 C-1.98490742 69.41457265 -1.39696601 52.44730679 -5.93359375 35.515625 C-9.08915102 26.21273644 -14.37503471 18.13502416 -23.25 13.4375 C-35.38562916 8.01795621 -50.76818732 10.33880068 -60 20 Z " fill="#07C5DD" transform="translate(930,116)"/>
<path d="M0 0 C22.11 0 44.22 0 67 0 C67 49.83 67 99.66 67 151 C79.21 151 91.42 151 104 151 C104 158.59 104 166.18 104 174 C69.68 174 35.36 174 0 174 C0 166.41 0 158.82 0 151 C12.87 151 25.74 151 39 151 C39 108.76 39 66.52 39 23 C26.13 23 13.26 23 0 23 C0 15.41 0 7.82 0 0 Z " fill="#FFFFFF" transform="translate(291,60)"/>
<path d="M0 0 C6.18438161 5.5540504 9.60697188 12.76546898 12.78125 20.32421875 C12.78125 20.98421875 12.78125 21.64421875 12.78125 22.32421875 C9.15704876 23.16105225 5.53176363 23.99309109 1.90625 24.82421875 C0.87371094 25.06269531 -0.15882813 25.30117187 -1.22265625 25.546875 C-2.70185547 25.88525391 -2.70185547 25.88525391 -4.2109375 26.23046875 C-5.12214355 26.43994141 -6.03334961 26.64941406 -6.97216797 26.86523438 C-9.21875 27.32421875 -9.21875 27.32421875 -11.21875 27.32421875 C-12.15101067 25.79519249 -13.01426982 24.22385261 -13.84375 22.63671875 C-17.39117398 16.48320196 -21.55473703 13.54555641 -28.21875 11.32421875 C-41.32781216 10.424641 -41.32781216 10.424641 -53.21875 15.32421875 C-57.01389484 18.64497048 -59.07855662 20.50170482 -59.46875 25.57421875 C-59.18173504 29.87944314 -58.78986788 31.8456475 -56.21875 35.32421875 C-47.39307528 41.41169008 -36.21074606 42.98517057 -25.95556641 45.30102539 C-12.40576003 48.38812898 1.95582076 51.92975266 10.53515625 63.73828125 C16.03819365 73.00789877 16.61997447 83.81609383 14.078125 94.1953125 C13.16264385 96.43358634 12.12009188 98.31385743 10.78125 100.32421875 C10.38035156 100.99324219 9.97945312 101.66226563 9.56640625 102.3515625 C2.12612091 113.58747166 -10.14783818 119.05389759 -22.921875 121.93359375 C-41.88983392 124.18098225 -60.67268147 123.05832829 -76.55078125 111.6484375 C-84.97304616 104.90224521 -88.70882439 96.89369803 -90.21875 86.32421875 C-81.96875 84.67421875 -73.71875 83.02421875 -65.21875 81.32421875 C-63.89875 84.29421875 -62.57875 87.26421875 -61.21875 90.32421875 C-57.79035342 96.03821306 -52.46619399 98.00724946 -46.31640625 99.9140625 C-35.89027379 101.95269175 -26.00744353 100.10459004 -17.15625 94.32421875 C-14.09734913 91.16664366 -12.91213523 88.33772357 -12.78125 83.94921875 C-12.90820471 80.08344782 -13.61757792 77.44697361 -16.43847656 74.58300781 C-24.96898897 68.5512851 -37.42771354 67.2704762 -47.39257812 65.05664062 C-61.04363939 61.90528628 -74.60003189 57.82355278 -82.65625 45.57421875 C-87.24336267 37.15177021 -88.40875811 27.66395921 -86.21875 18.32421875 C-82.15826634 7.46446884 -75.68454233 -0.55799109 -65.21875 -5.67578125 C-44.13548752 -13.92575353 -18.60658705 -14.05321451 0 0 Z " fill="#2BF54D" transform="translate(658.21875,115.67578125)"/>
<path d="M0 0 C14.89660838 -0.81727029 28.71783001 1.04988513 41.07177734 10.12402344 C41.78978516 10.64867188 42.50779297 11.17332031 43.24755859 11.71386719 C51.14103269 18.03161953 56.4841475 27.0968876 58.07177734 37.12402344 C58.07177734 40.42402344 58.07177734 43.72402344 58.07177734 47.12402344 C49.49177734 47.12402344 40.91177734 47.12402344 32.07177734 47.12402344 C31.08177734 43.49402344 30.09177734 39.86402344 29.07177734 36.12402344 C24.73475564 29.96545263 20.504912 25.92055145 13.07177734 24.12402344 C5.13543474 23.17875186 -2.21013829 23.48315498 -8.92822266 28.12402344 C-16.53955641 34.55507085 -19.72132329 43.42328516 -20.92822266 53.12402344 C-21.74326011 68.46270879 -22.36779057 85.42405867 -11.55322266 97.68261719 C-5.48705447 103.23777664 1.32671479 104.67105871 9.33349609 104.40527344 C17.17085284 103.60029528 22.76456676 100.95154879 28.07177734 95.12402344 C29.39177734 91.49402344 30.71177734 87.86402344 32.07177734 84.12402344 C40.65177734 84.12402344 49.23177734 84.12402344 58.07177734 84.12402344 C58.07177734 96.42530519 55.01746004 104.11961374 46.45068359 112.94042969 C35.20611505 123.26179884 20.19436697 128.78274208 4.92724609 128.37011719 C-11.19773851 126.98041263 -24.75047571 122.46410109 -35.92822266 110.12402344 C-38.5733505 106.60564801 -40.82001879 102.98530591 -42.92822266 99.12402344 C-43.52763672 98.03154297 -43.52763672 98.03154297 -44.13916016 96.91699219 C-53.25084328 78.45384481 -52.24578519 54.03775454 -45.86181641 34.93261719 C-43.24767032 28.03920887 -39.80011856 22.62489496 -34.92822266 17.12402344 C-34.45255859 16.52074219 -33.97689453 15.91746094 -33.48681641 15.29589844 C-26.90427573 7.66496355 -14.68206989 1.67539398 -4.72900391 0.30371094 C-3.15266254 0.20257886 -1.57632484 0.10138934 0 0 Z " fill="#FFFFFF" transform="translate(193.92822265625,108.8759765625)"/>
<path d="M0 0 C21.45 0 42.9 0 65 0 C65 33 65 66 65 100 C76.88 100 88.76 100 101 100 C101 107.59 101 115.18 101 123 C67.67 123 34.34 123 0 123 C0 115.41 0 107.82 0 100 C12.21 100 24.42 100 37 100 C37 74.92 37 49.84 37 24 C24.79 24 12.58 24 0 24 C0 16.08 0 8.16 0 0 Z " fill="#FFFFFF" transform="translate(431,111)"/>
<path d="M0 0 C5.59144141 0.61278396 10.27485935 2.58894006 15.3984375 4.76953125 C16.32629059 5.15825912 17.25414368 5.546987 18.21011353 5.94749451 C21.2675851 7.22994582 24.32123766 8.52124425 27.375 9.8125 C29.49971848 10.70542278 31.62472272 11.59766586 33.75 12.48925781 C38.20520236 14.35888509 42.65913171 16.23150156 47.11230469 18.10595703 C57.32517295 22.40136179 67.55536652 26.65519091 77.78448486 30.91171265 C82.919501 33.04889032 88.05346257 35.18859761 93.1875 37.328125 C96.095625 38.53984375 99.00375 39.7515625 102 41 C102 48.92 102 56.84 102 65 C99.23625 66.13953125 96.4725 67.2790625 93.625 68.453125 C70.12321601 78.1474619 46.6392093 87.88329232 23.17773438 97.67480469 C21.70555199 98.28904549 21.70555199 98.28904549 20.20362854 98.91569519 C18.37220916 99.67991048 16.54093107 100.44446452 14.70982361 101.20942688 C13.13490904 101.8666816 11.55925161 102.52216095 9.9826355 103.17532349 C8.35111791 103.85395263 6.72559331 104.54697179 5.10180664 105.24389648 C3 106 3 106 0 106 C0 97.09 0 88.18 0 79 C13.50020068 73.37491638 13.50020068 73.37491638 18.54711914 71.61230469 C19.67771255 71.215495 20.80830597 70.8186853 21.97315979 70.40985107 C23.14861862 70.00131897 24.32407745 69.59278687 25.53515625 69.171875 C26.77623642 68.73740051 28.01731659 68.30292603 29.29600525 67.85528564 C32.55362219 66.71494243 35.8127108 65.57886643 39.07214355 64.44372559 C42.40256809 63.28292812 45.73146744 62.11777316 49.06054688 60.953125 C67.82121584 54.39292805 67.82121584 54.39292805 72 53 C59.74721803 48.51941951 47.45981186 44.14674792 35.1328125 39.875 C33.57969864 39.33655457 33.57969864 39.33655457 31.99520874 38.78723145 C26.72536369 36.96117916 21.45407776 35.13940317 16.18115234 33.32226562 C14.2144922 32.64200234 12.24785698 31.96166697 10.28125 31.28125 C8.89850388 30.80679443 8.89850388 30.80679443 7.48782349 30.32275391 C6.22638016 29.88552002 6.22638016 29.88552002 4.93945312 29.43945312 C4.1998938 29.1845813 3.46033447 28.92970947 2.69836426 28.66711426 C1 28 1 28 0 27 C-0.08758003 25.00035018 -0.10696576 22.9976389 -0.09765625 20.99609375 C-0.09443359 19.78115234 -0.09121094 18.56621094 -0.08789062 17.31445312 C-0.07951172 16.03505859 -0.07113281 14.75566406 -0.0625 13.4375 C-0.05798828 12.15423828 -0.05347656 10.87097656 -0.04882812 9.54882812 C-0.03699545 6.36583978 -0.02051068 3.18294238 0 0 Z " fill="#32FF32" transform="translate(3,111)"/>
<path d="M0 0 C1.54300781 -0.03867188 1.54300781 -0.03867188 3.1171875 -0.078125 C7.73868317 0.42603816 11.16805643 2.70166771 14.125 6.25 C15.73316725 11.07450176 15.92974053 15.4393338 13.875 20.0625 C12.07252485 22.31559394 10.56361699 23.71715504 8.125 25.25 C7.25875 25.806875 6.3925 26.36375 5.5 26.9375 C0.94122927 28.71035528 -3.04220837 28.96393513 -7.875 28.25 C-12.00015131 26.18742435 -14.18026469 24.50600948 -15.875 20.25 C-16.44228219 15.7191098 -16.45602568 11.58635907 -14.625 7.375 C-10.05855846 1.83003528 -7.26180786 0.10865548 0 0 Z " fill="#FFFFFF" transform="translate(481.875,64.75)"/>
</svg>
