<?xml version="1.0" encoding="UTF-8"?>
<svg version="1.1" xmlns="http://www.w3.org/2000/svg" width="946" height="217">
<path d="M0 0 C312.18 0 624.36 0 946 0 C946 71.61 946 143.22 946 217 C633.82 217 321.64 217 0 217 C0 145.39 0 73.78 0 0 Z " fill="#000000" transform="translate(0,0)"/>
<path d="M0 0 C14.90093938 12.33218252 23.19943535 30.10460238 25.75488281 49.08813477 C27.48532478 74.90745743 24.42778041 98.57021361 7.56738281 119.21313477 C-3.59599497 131.3579084 -20.66181223 139.55557363 -37.21386719 140.25610352 C-58.45081925 140.47424318 -76.49357421 136.4774699 -92.43261719 121.46313477 C-107.35715335 105.73442391 -113.65155038 84.78898289 -113.62011719 63.46313477 C-113.61850586 62.32030029 -113.61689453 61.17746582 -113.61523438 60 C-113.48214364 50.76780864 -112.2098207 42.82889856 -109.24511719 34.08813477 C-108.93316406 33.07879883 -108.62121094 32.06946289 -108.29980469 31.02954102 C-104.62282045 19.8904417 -98.39786795 11.41496562 -90.24511719 3.08813477 C-89.72691406 2.53383789 -89.20871094 1.97954102 -88.67480469 1.40844727 C-65.67192027 -20.87183345 -23.95535349 -18.85249798 0 0 Z " fill="#8FC9D2" transform="translate(914.2451171875,71.911865234375)"/>
<path d="M0 0 C1.25043091 0.01123901 1.25043091 0.01123901 2.52612305 0.02270508 C18.02863338 0.29272058 32.42965161 4.39348555 44.625 14.25 C45.615 15.02472656 46.605 15.79945312 47.625 16.59765625 C60.46086393 27.38775353 66.41321235 45.27597808 68.625 61.25 C68.625 69.17 68.625 77.09 68.625 85.25 C33.645 85.25 -1.335 85.25 -37.375 85.25 C-33.64159627 106.25657053 -33.64159627 106.25657053 -20.375 122.25 C-8.85696055 129.27411586 2.65509949 131.00025567 15.875 128.0625 C26.77667267 125.00263104 33.01012617 118.86608891 38.625 109.25 C47.41648147 110.47303752 56.00497349 112.13379055 64.625 114.25 C65.5076583 116.69686287 65.71449787 117.95681733 64.9453125 120.4765625 C61.48627745 127.41724067 57.08525068 132.77072405 51.625 138.25 C51.07070313 138.8275 50.51640625 139.405 49.9453125 140 C37.25974797 152.11755418 17.92136976 154.88643027 1.13769531 154.72045898 C-18.05566472 154.12325437 -35.09498175 147.0017281 -48.5234375 133.01171875 C-65.29635457 113.37905145 -67.89080759 89.12184535 -66.375 64.25 C-65.21084653 54.01714412 -62.33422509 44.30094724 -57.375 35.25 C-56.92253906 34.40179688 -56.47007812 33.55359375 -56.00390625 32.6796875 C-47.6239093 17.82733518 -34.64418556 7.44362462 -18.375 2.25 C-12.20290993 0.54269991 -6.39193727 -0.07647578 0 0 Z " fill="#66DF8B" transform="translate(707.375,57.75)"/>
<path d="M0 0 C25.08 0 50.16 0 76 0 C76 57.75 76 115.5 76 175 C90.52 175 105.04 175 120 175 C120 183.58 120 192.16 120 201 C80.4 201 40.8 201 0 201 C0 192.42 0 183.84 0 175 C14.85 175 29.7 175 45 175 C45 125.83 45 76.66 45 26 C30.15 26 15.3 26 0 26 C0 17.42 0 8.84 0 0 Z " fill="#FDFDFD" transform="translate(182,9)"/>
<path d="M0 0 C7.95902277 6.69477366 13.26450872 13.9877963 17.1875 23.6875 C17.1875 24.6775 17.1875 25.6675 17.1875 26.6875 C13.83907699 28.11916716 10.68454193 29.09908737 7.10546875 29.7578125 C6.17412109 29.93183594 5.24277344 30.10585937 4.28320312 30.28515625 C3.32349609 30.45917969 2.36378906 30.63320312 1.375 30.8125 C0.39595703 30.99425781 -0.58308594 31.17601562 -1.59179688 31.36328125 C-3.99788869 31.80928851 -6.40475214 32.25053717 -8.8125 32.6875 C-9.16441406 32.03523438 -9.51632812 31.38296875 -9.87890625 30.7109375 C-14.12658968 23.19153967 -18.09302345 17.74251847 -26.4375 14.8125 C-37.39804713 12.01406244 -48.31005359 13.07502977 -58.1875 18.5625 C-61.75968667 21.45427016 -65.45872557 24.8399058 -66.05078125 29.60546875 C-66.19977694 34.16160022 -66.0455704 38.13365836 -63.4375 42.07519531 C-56.15852412 49.29730419 -44.68979089 51.24250322 -35.0625 53.25 C-32.40288984 53.83464463 -29.74634544 54.43265992 -27.08984375 55.03125 C-25.83026855 55.31355469 -24.57069336 55.59585938 -23.27294922 55.88671875 C-9.77587683 59.01007119 5.57125224 62.97713833 14.1875 74.6875 C20.35825916 85.33590752 22.99052856 94.47712482 20.57421875 106.8203125 C16.83187449 119.44866362 9.22437068 127.82409888 -1.8125 134.6875 C-2.46863281 135.09613281 -3.12476563 135.50476563 -3.80078125 135.92578125 C-20.18637834 145.01329655 -43.48496778 146.61987422 -61.5 142.0625 C-76.72764904 137.57089129 -88.96662062 129.79972528 -96.8125 115.6875 C-99.15560667 111.33092525 -100.17879624 107.69354859 -99.8125 102.6875 C-95.16554153 101.01488584 -90.59058738 99.94835913 -85.75 99.0625 C-84.70875977 98.86140625 -84.70875977 98.86140625 -83.64648438 98.65625 C-79.99077319 97.97579474 -76.5318697 97.52799487 -72.8125 97.6875 C-72.35810547 98.68330078 -72.35810547 98.68330078 -71.89453125 99.69921875 C-67.52632346 108.9060567 -62.60192193 113.94825196 -53.1015625 117.78125 C-49.23615732 118.84630226 -45.60298994 119.03039022 -41.625 119 C-40.87758545 118.99581055 -40.1301709 118.99162109 -39.36010742 118.98730469 C-30.68601847 118.8116364 -22.65959419 117.36557811 -15.8125 111.6875 C-12.03303215 107.39729325 -10.65397743 104.99934717 -10.5625 99.3125 C-10.53671875 98.35601562 -10.5109375 97.39953125 -10.484375 96.4140625 C-10.86110901 93.28358225 -11.82350768 92.0638224 -13.8125 89.6875 C-13.8125 89.0275 -13.8125 88.3675 -13.8125 87.6875 C-14.91924072 87.25062866 -14.91924072 87.25062866 -16.04833984 86.80493164 C-17.66952769 86.14955478 -19.28358152 85.47490622 -20.87744141 84.75561523 C-29.70810571 80.88683877 -39.11448002 79.23784003 -48.50292969 77.26293945 C-61.39236044 74.5327535 -73.64737076 71.57648747 -83.8125 62.6875 C-84.42867188 62.18734375 -85.04484375 61.6871875 -85.6796875 61.171875 C-92.24706204 55.36552669 -95.62715948 47.98882653 -96.22265625 39.26171875 C-96.7173094 24.83835676 -94.01196769 15.49365476 -84.0703125 4.81640625 C-63.65505757 -14.85408616 -22.56972065 -16.75514855 0 0 Z " fill="#41F34B" transform="translate(594.8125,68.3125)"/>
<path d="M0 0 C1.64838867 -0.01836914 1.64838867 -0.01836914 3.33007812 -0.03710938 C19.13093741 -0.06537567 33.84515909 4.52704499 45.8125 15.1875 C56.62442539 26.4799554 60.8125 37.60513486 60.8125 53.1875 C51.2425 53.1875 41.6725 53.1875 31.8125 53.1875 C30.8225 49.5575 29.8325 45.9275 28.8125 42.1875 C24.10057809 32.88447469 17.54374952 29.43124984 7.8125 26.1875 C-3.18630658 25.32512571 -10.75469265 26.48568307 -19.4375 33.3125 C-28.23687427 41.46331481 -30.76216848 53.33751998 -31.31542969 64.84936523 C-31.76991584 81.50746304 -32.06056882 99.72566148 -20.48828125 113.16015625 C-14.10445039 118.99885099 -7.45455303 120.77554246 1 120.75 C2.25031006 120.74637451 2.25031006 120.74637451 3.52587891 120.74267578 C11.73822789 120.49968808 18.40058796 118.16993387 24.578125 112.59375 C29.0674022 107.53686304 29.84612575 103.95211978 30.8125 97.1875 C40.7125 97.1875 50.6125 97.1875 60.8125 97.1875 C60.8125 110.81875687 56.27068894 120.39983283 46.8671875 130.21875 C32.36964522 143.60109672 14.41532425 147.91119934 -4.78564453 147.31494141 C-21.9473801 146.40434718 -35.75485565 138.48780039 -47.1875 126.1875 C-64.06616745 105.9889476 -64.38628405 81.18678467 -63.1875 56.1875 C-62.64889328 50.86814552 -61.26809058 46.11490431 -59.1875 41.1875 C-58.92437012 40.54361328 -58.66124023 39.89972656 -58.39013672 39.23632812 C-51.4798212 22.70162863 -40.82056558 11.02537952 -24.05859375 3.84765625 C-21.45052461 2.87180082 -18.85741167 1.97643884 -16.1875 1.1875 C-15.59356445 1.0117041 -14.99962891 0.8359082 -14.38769531 0.65478516 C-9.68902651 -0.34313452 -4.78358843 0.00275711 0 0 Z " fill="#FCFCFC" transform="translate(75.1875,65.8125)"/>
<path d="M0 0 C25.08 0 50.16 0 76 0 C76 38.28 76 76.56 76 116 C89.53 116 103.06 116 117 116 C117 124.58 117 133.16 117 142 C78.39 142 39.78 142 0 142 C0 133.42 0 124.84 0 116 C14.52 116 29.04 116 44 116 C44 86.3 44 56.6 44 26 C29.48 26 14.96 26 0 26 C0 17.42 0 8.84 0 0 Z " fill="#FBFBFB" transform="translate(344,68)"/>
<path d="M0 0 C12.46686452 7.46158062 17.92811961 17.10721816 22.22265625 30.84375 C23.56202729 36.4597794 23.44304568 42.13876064 23.4140625 47.8828125 C23.40842285 49.03982666 23.4027832 50.19684082 23.39697266 51.38891602 C23.17511485 67.01890848 20.1456245 80.62351756 9.2265625 92.46875 C-0.59948984 100.74141907 -11.53098386 102.02734295 -23.8984375 101.2578125 C-33.85951421 99.30014425 -41.83109003 93.15012733 -47.53515625 84.88671875 C-57.0711834 68.72111101 -58.34070991 49.04755255 -54.578125 30.87890625 C-51.24154538 18.01198139 -45.61885261 8.12609083 -34.390625 0.59765625 C-24.58671482 -4.67309797 -10.03158809 -4.92961202 0 0 Z " fill="#000001" transform="translate(886.8984375,85.7421875)"/>
<path d="M0 0 C7.42666293 4.84535679 11.64390978 11.2543012 15.01171875 19.3125 C15.44484375 20.323125 15.87796875 21.33375 16.32421875 22.375 C17.01171875 25.3125 17.01171875 25.3125 17.01171875 34.3125 C-7.73828125 34.3125 -32.48828125 34.3125 -57.98828125 34.3125 C-57.98828125 23.4129304 -54.5626968 14.30100661 -46.98828125 6.3125 C-33.96763501 -6.09660904 -15.94569031 -8.52107616 0 0 Z " fill="#000101" transform="translate(728.98828125,86.6875)"/>
<path d="M0 0 C3.97156771 2.21491276 7.18560639 4.68371278 9.25 8.8125 C9.8417588 14.50248842 9.50047199 18.93679202 6.25 23.8125 C4.5625 25.4375 4.5625 25.4375 2.25 26.8125 C1.6828125 27.16441406 1.115625 27.51632813 0.53125 27.87890625 C-4.59469302 30.79784602 -8.89884582 31.65439269 -14.75 30.8125 C-19.3216521 29.53843302 -21.22500592 28.47210795 -24.1875 24.75 C-26.3914439 20.24670338 -26.54475191 15.71076685 -25.75 10.8125 C-23.35760989 5.93570478 -20.03431045 3.00294396 -15.75 -0.1875 C-10.35248784 -1.98667072 -5.39726739 -1.70913467 0 0 Z " fill="#FAFAFA" transform="translate(410.75,15.1875)"/>
</svg>
